<svg width="1033" height="257" viewBox="0 0 1033 257" fill="none" xmlns="http://www.w3.org/2000/svg">
<path opacity="0.8" d="M147.968 248.52C151.288 248.52 153.968 246.36 156.008 242L166.328 220H161.608L154.728 235.16L146.448 220H141.488L152.447 239.84C151.568 241.68 150.768 242.92 150.008 243.52C149.248 244.12 148.328 244.4 147.208 244.4C146.048 244.4 145.008 244.16 144.008 243.72V247.88C144.928 248.32 146.248 248.52 147.968 248.52ZM168.031 253.4V248H184.231V253.4H188.311V244.2H184.911V228.36H169.271C169.231 232.72 169.031 236.04 168.591 238.4C168.191 240.72 167.471 242.64 166.431 244.2H163.871V253.4H168.031ZM170.991 244.2C172.471 241.28 173.231 237.28 173.231 232.16H180.591V244.2H170.991ZM202.035 244.72C200.155 244.72 198.635 244.08 197.395 242.84C196.155 241.6 195.555 240.04 195.555 238.16C195.555 236.32 196.155 234.76 197.395 233.52C198.635 232.28 200.195 231.64 202.035 231.64C203.875 231.64 205.395 232.28 206.635 233.52C207.875 234.76 208.475 236.32 208.475 238.16C208.475 240.04 207.875 241.6 206.635 242.84C205.395 244.08 203.875 244.72 202.035 244.72ZM202.035 248.52C205.155 248.52 207.715 247.52 209.755 245.52C211.795 243.48 212.795 241.04 212.795 238.16C212.795 235.28 211.795 232.84 209.755 230.84C207.715 228.84 205.155 227.84 202.035 227.84C198.875 227.84 196.315 228.84 194.275 230.84C192.235 232.84 191.235 235.28 191.235 238.16C191.235 241.08 192.235 243.52 194.275 245.52C196.315 247.52 198.875 248.52 202.035 248.52ZM228.877 248C233.237 248 235.757 245.96 235.757 242.64C235.757 240.04 234.477 238.36 231.917 237.6C233.397 236.92 234.437 235.32 234.437 233.36C234.437 230.48 232.237 228.36 228.277 228.36H217.557V248H228.877ZM221.877 239.68H228.117C230.157 239.68 231.357 240.56 231.357 242.12C231.357 243.6 230.157 244.52 228.117 244.52H221.877V239.68ZM221.877 231.84H227.237C229.197 231.84 230.197 232.56 230.197 234.04C230.197 235.36 229.117 236.2 227.237 236.2H221.877V231.84ZM250.199 244.72C248.319 244.72 246.799 244.08 245.559 242.84C244.319 241.6 243.719 240.04 243.719 238.16C243.719 236.32 244.319 234.76 245.559 233.52C246.799 232.28 248.359 231.64 250.199 231.64C252.039 231.64 253.559 232.28 254.799 233.52C256.039 234.76 256.639 236.32 256.639 238.16C256.639 240.04 256.039 241.6 254.799 242.84C253.559 244.08 252.039 244.72 250.199 244.72ZM250.199 248.52C253.319 248.52 255.879 247.52 257.919 245.52C259.959 243.48 260.959 241.04 260.959 238.16C260.959 235.28 259.959 232.84 257.919 230.84C255.879 228.84 253.319 227.84 250.199 227.84C247.039 227.84 244.479 228.84 242.439 230.84C240.399 232.84 239.399 235.28 239.399 238.16C239.399 241.08 240.399 243.52 242.439 245.52C244.479 247.52 247.039 248.52 250.199 248.52ZM279.375 232.16V248H283.695V228.36H267.855L267.735 234.76C267.615 241.6 266.615 244.32 263.775 244.32C263.495 244.32 263.175 244.28 262.895 244.2V247.92C263.295 248.04 263.735 248.08 264.255 248.08C268.215 247.92 270.135 245.76 271.015 242.28C271.695 239.76 271.855 237.88 271.895 235L271.975 232.16H279.375ZM300.021 248C302.461 248 304.341 247.36 305.701 246.08C307.061 244.76 307.741 243.12 307.741 241.16C307.741 237 304.621 234.32 299.821 234.32H294.181V228.36H289.861V248H300.021ZM294.181 237.96H299.341C301.901 237.96 303.381 239.12 303.381 241.16C303.381 243.12 301.861 244.36 299.341 244.36H294.181V237.96ZM321.718 248.52C324.038 248.52 326.118 248 327.998 246.92V243.24C326.358 244.24 324.478 244.72 322.398 244.72C320.438 244.72 318.798 244.12 317.438 242.88C316.118 241.64 315.438 240.04 315.438 238.16C315.438 236.28 316.118 234.72 317.438 233.48C318.798 232.24 320.438 231.64 322.398 231.64C324.158 231.64 325.918 232.08 327.678 232.92V229.2C325.958 228.28 323.958 227.84 321.758 227.84C318.798 227.84 316.278 228.8 314.198 230.72C312.158 232.64 311.118 235.12 311.118 238.12C311.118 241.16 312.158 243.64 314.198 245.6C316.278 247.56 318.798 248.52 321.718 248.52ZM341.979 248V232.16H348.579V228.36H331.019V232.16H337.659V248H341.979ZM363.838 248C368.198 248 370.718 245.96 370.718 242.64C370.718 240.04 369.438 238.36 366.878 237.6C368.358 236.92 369.398 235.32 369.398 233.36C369.398 230.48 367.198 228.36 363.238 228.36H352.518V248H363.838ZM356.838 239.68H363.078C365.118 239.68 366.318 240.56 366.318 242.12C366.318 243.6 365.118 244.52 363.078 244.52H356.838V239.68ZM356.838 231.84H362.198C364.158 231.84 365.158 232.56 365.158 234.04C365.158 235.36 364.078 236.2 362.198 236.2H356.838V231.84ZM379.8 248L390.4 234.64V248H394.72V228.36H390.68L380.08 241.68V228.36H375.76V248H379.8ZM399.477 238.16C399.477 241.24 400.517 243.72 402.597 245.64C404.717 247.56 407.277 248.52 410.317 248.52C413.357 248.52 415.757 247.88 417.557 246.6V242.96C415.597 244.12 413.517 244.72 411.237 244.72C407.237 244.72 404.357 242.76 403.837 239.44H418.877V238.32C418.877 234.76 417.637 231.52 414.717 229.44C413.277 228.36 411.557 227.84 409.557 227.84C406.557 227.84 404.157 228.84 402.277 230.8C400.397 232.76 399.477 235.24 399.477 238.16ZM403.877 236.16C404.157 233.6 406.197 231.48 409.357 231.48C410.957 231.48 412.197 231.96 413.117 232.92C414.037 233.88 414.477 234.96 414.517 236.16H403.877ZM452.598 244.64C451.638 244.64 450.958 243.92 450.958 242.68V235.36C450.958 230.56 447.318 227.84 441.878 227.84C439.038 227.84 436.678 228.4 434.718 229.52V233.32C436.598 232.16 438.678 231.56 440.918 231.56C444.758 231.56 446.678 233 446.678 235.84V236.92C444.878 235.92 442.758 235.4 440.398 235.4C438.198 235.4 436.318 235.96 434.798 237.12C433.278 238.24 432.518 239.84 432.518 241.92C432.518 243.96 433.198 245.6 434.598 246.76C435.998 247.92 437.758 248.52 439.878 248.52C442.918 248.52 445.318 247.52 447.118 245.48C447.638 247.36 449.038 248.28 451.238 248.28C452.318 248.28 453.158 248.08 453.758 247.64V244.36C453.398 244.56 453.038 244.64 452.598 244.64ZM446.678 242.44C445.438 243.76 443.318 244.8 441.078 244.8C438.558 244.8 436.838 243.76 436.838 241.68C436.838 239.76 438.558 238.64 441.438 238.64C443.278 238.64 445.038 239.12 446.678 240.04V242.44ZM472.265 232.16V248H476.585V228.36H460.745L460.625 234.76C460.505 241.6 459.505 244.32 456.665 244.32C456.385 244.32 456.065 244.28 455.785 244.2V247.92C456.185 248.04 456.625 248.08 457.145 248.08C461.105 247.92 463.025 245.76 463.905 242.28C464.585 239.76 464.745 237.88 464.785 235L464.865 232.16H472.265ZM492.912 248C495.352 248 497.232 247.36 498.592 246.08C499.952 244.76 500.632 243.12 500.632 241.16C500.632 237 497.512 234.32 492.712 234.32H487.072V228.36H482.752V248H492.912ZM487.072 237.96H492.232C494.792 237.96 496.272 239.12 496.272 241.16C496.272 243.12 494.752 244.36 492.232 244.36H487.072V237.96ZM509.728 248V232.16H519.408V248H523.728V228.36H505.408V248H509.728ZM533.94 248L544.54 234.64V248H548.86V228.36H544.82L534.22 241.68V228.36H529.9V248H533.94ZM559.058 248L569.658 234.64V248H573.977V228.36H569.938L559.338 241.68V228.36H555.018V248H559.058ZM564.498 225.72C568.498 225.72 571.378 223.16 571.418 219.12H567.738C567.698 221.04 566.378 222.4 564.458 222.4C562.497 222.4 561.218 221.04 561.218 219.12H557.578C557.618 223.16 560.458 225.72 564.498 225.72ZM589.335 248.52C591.655 248.52 593.735 248 595.615 246.92V243.24C593.975 244.24 592.095 244.72 590.015 244.72C588.055 244.72 586.415 244.12 585.055 242.88C583.735 241.64 583.055 240.04 583.055 238.16C583.055 236.28 583.735 234.72 585.055 233.48C586.415 232.24 588.055 231.64 590.015 231.64C591.775 231.64 593.535 232.08 595.295 232.92V229.2C593.575 228.28 591.575 227.84 589.375 227.84C586.415 227.84 583.895 228.8 581.815 230.72C579.775 232.64 578.735 235.12 578.735 238.12C578.735 241.16 579.775 243.64 581.815 245.6C583.895 247.56 586.415 248.52 589.335 248.52ZM605.236 248V239.12L613.996 248H619.916L609.196 237.16L618.516 228.36H612.996L605.236 235.8V228.36H600.916V248H605.236ZM631.722 244.72C629.842 244.72 628.322 244.08 627.082 242.84C625.842 241.6 625.242 240.04 625.242 238.16C625.242 236.32 625.842 234.76 627.082 233.52C628.322 232.28 629.882 231.64 631.722 231.64C633.562 231.64 635.082 232.28 636.322 233.52C637.562 234.76 638.162 236.32 638.162 238.16C638.162 240.04 637.562 241.6 636.322 242.84C635.082 244.08 633.562 244.72 631.722 244.72ZM631.722 248.52C634.842 248.52 637.402 247.52 639.442 245.52C641.482 243.48 642.482 241.04 642.482 238.16C642.482 235.28 641.482 232.84 639.442 230.84C637.402 228.84 634.842 227.84 631.722 227.84C628.562 227.84 626.002 228.84 623.962 230.84C621.922 232.84 620.922 235.28 620.922 238.16C620.922 241.08 621.922 243.52 623.962 245.52C626.002 247.52 628.562 248.52 631.722 248.52ZM651.564 248V232.16H662.444V228.36H647.244V248H651.564ZM675.55 244.72C673.67 244.72 672.15 244.08 670.91 242.84C669.67 241.6 669.07 240.04 669.07 238.16C669.07 236.32 669.67 234.76 670.91 233.52C672.15 232.28 673.71 231.64 675.55 231.64C677.39 231.64 678.91 232.28 680.15 233.52C681.39 234.76 681.99 236.32 681.99 238.16C681.99 240.04 681.39 241.6 680.15 242.84C678.91 244.08 677.39 244.72 675.55 244.72ZM675.55 248.52C678.67 248.52 681.23 247.52 683.27 245.52C685.31 243.48 686.31 241.04 686.31 238.16C686.31 235.28 685.31 232.84 683.27 230.84C681.23 228.84 678.67 227.84 675.55 227.84C672.39 227.84 669.83 228.84 667.79 230.84C665.75 232.84 664.75 235.28 664.75 238.16C664.75 241.08 665.75 243.52 667.79 245.52C669.83 247.52 672.39 248.52 675.55 248.52ZM705.623 248V234.24L711.583 241.48H713.263L719.263 234.24V248H723.423V228.36H719.183L712.423 236.52L705.703 228.36H701.463V248H705.623ZM748.028 244.64C747.068 244.64 746.388 243.92 746.388 242.68V235.36C746.388 230.56 742.748 227.84 737.308 227.84C734.468 227.84 732.108 228.4 730.148 229.52V233.32C732.028 232.16 734.108 231.56 736.348 231.56C740.188 231.56 742.108 233 742.108 235.84V236.92C740.308 235.92 738.188 235.4 735.828 235.4C733.628 235.4 731.748 235.96 730.228 237.12C728.708 238.24 727.948 239.84 727.948 241.92C727.948 243.96 728.628 245.6 730.028 246.76C731.428 247.92 733.188 248.52 735.308 248.52C738.348 248.52 740.748 247.52 742.548 245.48C743.068 247.36 744.468 248.28 746.668 248.28C747.748 248.28 748.588 248.08 749.188 247.64V244.36C748.828 244.56 748.468 244.64 748.028 244.64ZM742.108 242.44C740.868 243.76 738.748 244.8 736.508 244.8C733.988 244.8 732.268 243.76 732.268 241.68C732.268 239.76 733.988 238.64 736.868 238.64C738.708 238.64 740.468 239.12 742.108 240.04V242.44ZM762.655 248.52C764.975 248.52 767.055 248 768.935 246.92V243.24C767.295 244.24 765.415 244.72 763.335 244.72C761.375 244.72 759.735 244.12 758.375 242.88C757.055 241.64 756.375 240.04 756.375 238.16C756.375 236.28 757.055 234.72 758.375 233.48C759.735 232.24 761.375 231.64 763.335 231.64C765.095 231.64 766.855 232.08 768.615 232.92V229.2C766.895 228.28 764.895 227.84 762.695 227.84C759.735 227.84 757.215 228.8 755.135 230.72C753.095 232.64 752.055 235.12 752.055 238.12C752.055 241.16 753.095 243.64 755.135 245.6C757.215 247.56 759.735 248.52 762.655 248.52ZM801.836 248V228.36H797.516V244.2H790.196V228.36H785.876V244.2H778.556V228.36H774.236V248H801.836ZM816.666 248V232.16H823.266V228.36H805.706V232.16H812.346V248H816.666ZM845.645 244.64C844.685 244.64 844.005 243.92 844.005 242.68V235.36C844.005 230.56 840.365 227.84 834.925 227.84C832.085 227.84 829.725 228.4 827.765 229.52V233.32C829.645 232.16 831.725 231.56 833.965 231.56C837.805 231.56 839.725 233 839.725 235.84V236.92C837.925 235.92 835.805 235.4 833.445 235.4C831.245 235.4 829.365 235.96 827.845 237.12C826.325 238.24 825.565 239.84 825.565 241.92C825.565 243.96 826.245 245.6 827.645 246.76C829.045 247.92 830.805 248.52 832.925 248.52C835.965 248.52 838.365 247.52 840.165 245.48C840.685 247.36 842.085 248.28 844.285 248.28C845.365 248.28 846.205 248.08 846.805 247.64V244.36C846.445 244.56 846.085 244.64 845.645 244.64ZM839.725 242.44C838.485 243.76 836.365 244.8 834.125 244.8C831.605 244.8 829.885 243.76 829.885 241.68C829.885 239.76 831.605 238.64 834.485 238.64C836.325 238.64 838.085 239.12 839.725 240.04V242.44ZM860.672 248.52C863.512 248.52 865.912 247.6 867.832 245.72C869.792 243.84 870.752 241.4 870.752 238.4C870.752 235.72 869.912 233.56 868.232 231.92C866.552 230.28 864.432 229.44 861.872 229.44C858.472 229.44 855.552 230.92 853.912 233.32C853.992 232.04 854.232 230.92 854.632 230C855.552 227.8 857.512 226.24 860.472 225.24C861.632 224.84 864.352 224.24 868.552 223.44V219.44C865.952 219.88 863.752 220.32 861.952 220.76C860.192 221.2 858.472 221.84 856.832 222.64C855.192 223.44 853.912 224.4 852.992 225.52C851.112 227.72 849.952 231.08 849.952 235.6C849.952 239.56 850.872 242.68 852.752 245.04C854.632 247.36 857.272 248.52 860.672 248.52ZM860.672 244.72C856.712 244.72 854.392 241.92 854.192 237.12C855.472 234.92 858.072 233.16 860.832 233.16C864.072 233.16 866.432 235.36 866.432 238.72C866.432 240.48 865.872 241.92 864.792 243.04C863.712 244.16 862.312 244.72 860.672 244.72ZM893.965 244.64C893.005 244.64 892.325 243.92 892.325 242.68V235.36C892.325 230.56 888.685 227.84 883.245 227.84C880.405 227.84 878.045 228.4 876.085 229.52V233.32C877.965 232.16 880.045 231.56 882.285 231.56C886.125 231.56 888.045 233 888.045 235.84V236.92C886.245 235.92 884.125 235.4 881.765 235.4C879.565 235.4 877.685 235.96 876.165 237.12C874.645 238.24 873.885 239.84 873.885 241.92C873.885 243.96 874.565 245.6 875.965 246.76C877.365 247.92 879.125 248.52 881.245 248.52C884.285 248.52 886.685 247.52 888.485 245.48C889.005 247.36 890.405 248.28 892.605 248.28C893.685 248.28 894.525 248.08 895.125 247.64V244.36C894.765 244.56 894.405 244.64 893.965 244.64ZM888.045 242.44C886.805 243.76 884.685 244.8 882.445 244.8C879.925 244.8 878.205 243.76 878.205 241.68C878.205 239.76 879.925 238.64 882.805 238.64C884.645 238.64 886.405 239.12 888.045 240.04V242.44Z" fill="#101820"/>
<g clip-path="url(#clip0_2_4072)">
<path d="M421.473 72.0987L422.384 95.8895L349.314 31.3408V153.246H376.1V114.148L375.371 89.0658L448.623 154.721V32.8162H421.473V72.0987Z" fill="#101820"/>
<path d="M269.502 30.9717C252.738 30.9717 238.343 36.6888 226.681 47.9388C214.836 59.1887 209.005 74.4959 209.005 93.1228C209.005 111.75 214.836 127.057 226.498 138.307C237.978 149.557 252.374 155.274 269.32 155.274C286.995 155.274 301.755 149.372 313.052 137.938C324.35 126.319 329.999 111.381 329.999 93.3072C329.999 74.6803 323.986 59.3731 312.324 48.1232C300.479 36.6888 286.084 30.9717 269.502 30.9717ZM269.502 128.717C259.844 128.717 252.009 125.582 245.631 119.311C239.254 113.041 236.338 104.373 236.338 92.9384C236.338 81.5041 239.436 73.0205 245.814 66.5657C252.191 60.1108 260.027 57.16 269.684 57.16C279.342 57.16 286.995 60.2952 293.373 66.7501C299.75 73.2049 302.848 81.8729 302.848 92.9384C302.848 104.373 299.75 112.856 293.373 119.127C286.995 125.582 279.16 128.717 269.502 128.717Z" fill="#101820"/>
<path d="M467.756 58.2668H499.645V153.246H526.431V58.2668H558.319V32.8162H467.756V58.2668Z" fill="#101820"/>
<path d="M606.607 103.82H652.527V78.5535H606.607V58.0823H655.26V32.8162H579.457V153.246H656.171V127.426H606.607V103.82Z" fill="#101820"/>
<path d="M769.329 96.8114C774.067 89.9877 776.435 82.2419 776.435 73.7584C776.435 62.324 772.427 52.5495 764.773 44.8037C756.938 37.0578 746.552 33.0005 733.796 33.0005H683.868V153.43H711.019L710.654 58.0823H733.432C738.169 58.0823 741.996 59.5577 745.094 62.6929C748.192 65.6437 749.649 69.5166 749.649 74.1272C749.649 78.9223 748.192 82.7952 745.094 85.9304C741.996 89.0656 738.169 90.541 733.432 90.541H712.477L756.027 153.614H785.182L755.48 109.352C761.129 106.033 765.685 101.975 769.329 96.8114Z" fill="#101820"/>
<path d="M888.865 96.8114C893.602 89.9877 895.971 82.2419 895.971 73.7584C895.971 62.324 891.962 52.5495 884.309 44.8037C876.474 37.0578 866.087 33.0005 853.332 33.0005H803.586V153.43H830.737L830.372 58.0823H853.15C857.887 58.0823 861.714 59.5577 864.812 62.6929C867.91 65.6437 869.367 69.5166 869.367 74.1272C869.367 78.9223 867.91 82.7952 864.812 85.9304C861.714 89.0656 857.887 90.541 853.15 90.541H832.012L875.563 153.614H904.718L875.016 109.352C880.665 106.033 885.22 101.975 888.865 96.8114Z" fill="#101820"/>
<path d="M971.228 30.603L908.544 153.245H936.424L945.353 135.91H996.374L1005.3 153.245H1033L971.228 30.603ZM971.045 80.951L986.352 112.119H955.739L971.045 80.951Z" fill="#101820"/>
<path d="M135.753 0.9104L92.7495 85.1925L63.9589 28.2053L0 153.245H29.7017L63.5945 82.0573L97.4872 153.245H127.007L107.145 114.147L135.571 54.7624L182.037 153.245H211.556L135.753 0.9104Z" fill="#101820"/>
</g>
<defs>
<clipPath id="clip0_2_4072">
<rect width="1033" height="154.179" fill="white" transform="translate(0 0.9104)"/>
</clipPath>
</defs>
</svg>
