<svg width="346" height="126" viewBox="0 0 346 126" fill="none" xmlns="http://www.w3.org/2000/svg">
<g clip-path="url(#clip0_2_1642)">
<path d="M141.171 23.7016L141.476 31.6226L117.002 10.1316V50.7189H125.974V37.7015L125.73 29.3507L150.265 51.2101V10.6228H141.171V23.7016Z" fill="#101820"/>
<path d="M90.2688 10.0085C84.6537 10.0085 79.832 11.912 75.9259 15.6576C71.9587 19.4032 70.0056 24.4996 70.0056 30.7013C70.0056 36.903 71.9587 41.9994 75.8649 45.745C79.71 49.4906 84.5316 51.3941 90.2078 51.3941C96.128 51.3941 101.072 49.4292 104.856 45.6222C108.64 41.7538 110.532 36.7802 110.532 30.7627C110.532 24.561 108.518 19.4646 104.612 15.719C100.645 11.912 95.8229 10.0085 90.2688 10.0085ZM90.2688 42.5521C87.034 42.5521 84.4096 41.5082 82.2734 39.4205C80.1372 37.3328 79.1607 34.4469 79.1607 30.6399C79.1607 26.8329 80.1982 24.0084 82.3344 21.8593C84.4706 19.7102 87.0951 18.7277 90.3298 18.7277C93.5646 18.7277 96.128 19.7716 98.2642 21.9207C100.4 24.0698 101.438 26.9557 101.438 30.6399C101.438 34.4469 100.4 37.2714 98.2642 39.3591C96.128 41.5082 93.5036 42.5521 90.2688 42.5521Z" fill="#101820"/>
<path d="M156.673 19.0964H167.354V50.7189H176.326V19.0964H187.007V10.6228H156.673V19.0964Z" fill="#101820"/>
<path d="M203.181 34.2629H218.562V25.8507H203.181V19.035H219.477V10.6228H194.087V50.7189H219.783V42.1225H203.181V34.2629Z" fill="#101820"/>
<path d="M257.684 31.9295C259.271 29.6576 260.065 27.0786 260.065 24.2541C260.065 20.4471 258.722 17.1928 256.159 14.6139C253.534 12.0349 250.055 10.6841 245.783 10.6841H229.06V50.7801H238.154L238.032 19.0349H245.661C247.248 19.0349 248.529 19.5261 249.567 20.5699C250.604 21.5524 251.093 22.8418 251.093 24.3769C251.093 25.9734 250.604 27.2629 249.567 28.3067C248.529 29.3505 247.248 29.8418 245.661 29.8418H238.642L253.229 50.8416H262.994L253.046 36.1049C254.938 34.9996 256.464 33.6488 257.684 31.9295Z" fill="#101820"/>
<path d="M297.722 31.9295C299.309 29.6576 300.103 27.0786 300.103 24.2541C300.103 20.4471 298.76 17.1928 296.197 14.6139C293.572 12.0349 290.093 10.6841 285.821 10.6841H269.159V50.7801H278.253L278.131 19.0349H285.76C287.347 19.0349 288.628 19.5261 289.666 20.5699C290.704 21.5524 291.192 22.8418 291.192 24.3769C291.192 25.9734 290.704 27.2629 289.666 28.3067C288.628 29.3505 287.347 29.8418 285.76 29.8418H278.68L293.267 50.8416H303.032L293.084 36.1049C294.976 34.9996 296.502 33.6488 297.722 31.9295Z" fill="#101820"/>
<path d="M325.31 9.88599L304.314 50.7189H313.652L316.643 44.947H333.732L336.723 50.7189H346L325.31 9.88599ZM325.249 26.649L330.375 37.026H320.122L325.249 26.649Z" fill="#101820"/>
<path d="M45.4701 0L31.0662 28.0611L21.4228 9.08762L0 50.7188H9.94849L21.3008 27.0173L32.653 50.7188H42.5405L35.8878 37.7013L45.4091 17.9296L60.9727 50.7188H70.8601L45.4701 0Z" fill="#101820"/>
</g>
<path opacity="0.8" d="M93.368 94.6448C95.36 94.6448 96.968 93.3488 98.192 90.7328L104.384 77.5328H101.552L97.424 86.6288L92.456 77.5328H89.48L96.056 89.4368C95.528 90.5408 95.048 91.2848 94.592 91.6448C94.136 92.0048 93.584 92.1728 92.912 92.1728C92.216 92.1728 91.592 92.0288 90.992 91.7648V94.2608C91.544 94.5248 92.336 94.6448 93.368 94.6448ZM105.406 97.5728V94.3328H115.126V97.5728H117.574V92.0528H115.534V82.5488H106.15C106.126 85.1648 106.006 87.1568 105.742 88.5728C105.502 89.9648 105.07 91.1168 104.446 92.0528H102.91V97.5728H105.406ZM107.182 92.0528C108.07 90.3008 108.526 87.9008 108.526 84.8288H112.942V92.0528H107.182ZM125.808 92.3648C124.68 92.3648 123.768 91.9808 123.024 91.2368C122.28 90.4928 121.92 89.5568 121.92 88.4288C121.92 87.3248 122.28 86.3888 123.024 85.6448C123.768 84.9008 124.704 84.5168 125.808 84.5168C126.912 84.5168 127.824 84.9008 128.568 85.6448C129.312 86.3888 129.672 87.3248 129.672 88.4288C129.672 89.5568 129.312 90.4928 128.568 91.2368C127.824 91.9808 126.912 92.3648 125.808 92.3648ZM125.808 94.6448C127.68 94.6448 129.216 94.0448 130.44 92.8448C131.664 91.6208 132.264 90.1568 132.264 88.4288C132.264 86.7008 131.664 85.2368 130.44 84.0368C129.216 82.8368 127.68 82.2368 125.808 82.2368C123.912 82.2368 122.376 82.8368 121.152 84.0368C119.928 85.2368 119.328 86.7008 119.328 88.4288C119.328 90.1808 119.928 91.6448 121.152 92.8448C122.376 94.0448 123.912 94.6448 125.808 94.6448ZM141.913 94.3328C144.529 94.3328 146.041 93.1088 146.041 91.1168C146.041 89.5568 145.273 88.5488 143.737 88.0928C144.625 87.6848 145.249 86.7248 145.249 85.5488C145.249 83.8208 143.929 82.5488 141.553 82.5488H135.121V94.3328H141.913ZM137.713 89.3408H141.457C142.681 89.3408 143.401 89.8688 143.401 90.8048C143.401 91.6928 142.681 92.2448 141.457 92.2448H137.713V89.3408ZM137.713 84.6368H140.929C142.105 84.6368 142.705 85.0688 142.705 85.9568C142.705 86.7488 142.057 87.2528 140.929 87.2528H137.713V84.6368ZM154.707 92.3648C153.579 92.3648 152.667 91.9808 151.923 91.2368C151.179 90.4928 150.819 89.5568 150.819 88.4288C150.819 87.3248 151.179 86.3888 151.923 85.6448C152.667 84.9008 153.603 84.5168 154.707 84.5168C155.811 84.5168 156.723 84.9008 157.467 85.6448C158.211 86.3888 158.571 87.3248 158.571 88.4288C158.571 89.5568 158.211 90.4928 157.467 91.2368C156.723 91.9808 155.811 92.3648 154.707 92.3648ZM154.707 94.6448C156.579 94.6448 158.115 94.0448 159.339 92.8448C160.563 91.6208 161.163 90.1568 161.163 88.4288C161.163 86.7008 160.563 85.2368 159.339 84.0368C158.115 82.8368 156.579 82.2368 154.707 82.2368C152.811 82.2368 151.275 82.8368 150.051 84.0368C148.827 85.2368 148.227 86.7008 148.227 88.4288C148.227 90.1808 148.827 91.6448 150.051 92.8448C151.275 94.0448 152.811 94.6448 154.707 94.6448ZM172.212 84.8288V94.3328H174.804V82.5488H165.3L165.228 86.3888C165.156 90.4928 164.556 92.1248 162.852 92.1248C162.684 92.1248 162.492 92.1008 162.324 92.0528V94.2848C162.564 94.3568 162.828 94.3808 163.14 94.3808C165.516 94.2848 166.668 92.9888 167.196 90.9008C167.604 89.3888 167.7 88.2608 167.724 86.5328L167.772 84.8288H172.212ZM184.6 94.3328C186.064 94.3328 187.192 93.9488 188.008 93.1808C188.824 92.3888 189.232 91.4048 189.232 90.2288C189.232 87.7328 187.36 86.1248 184.48 86.1248H181.096V82.5488H178.504V94.3328H184.6ZM181.096 88.3088H184.192C185.728 88.3088 186.616 89.0048 186.616 90.2288C186.616 91.4048 185.704 92.1488 184.192 92.1488H181.096V88.3088ZM197.618 94.6448C199.01 94.6448 200.258 94.3328 201.386 93.6848V91.4768C200.402 92.0768 199.274 92.3648 198.026 92.3648C196.85 92.3648 195.866 92.0048 195.05 91.2608C194.258 90.5168 193.85 89.5568 193.85 88.4288C193.85 87.3008 194.258 86.3648 195.05 85.6208C195.866 84.8768 196.85 84.5168 198.026 84.5168C199.082 84.5168 200.138 84.7808 201.194 85.2848V83.0528C200.162 82.5008 198.962 82.2368 197.642 82.2368C195.866 82.2368 194.354 82.8128 193.106 83.9648C191.882 85.1168 191.258 86.6048 191.258 88.4048C191.258 90.2288 191.882 91.7168 193.106 92.8928C194.354 94.0688 195.866 94.6448 197.618 94.6448ZM209.775 94.3328V84.8288H213.735V82.5488H203.199V84.8288H207.183V94.3328H209.775ZM222.89 94.3328C225.506 94.3328 227.018 93.1088 227.018 91.1168C227.018 89.5568 226.25 88.5488 224.714 88.0928C225.602 87.6848 226.226 86.7248 226.226 85.5488C226.226 83.8208 224.906 82.5488 222.53 82.5488H216.098V94.3328H222.89ZM218.69 89.3408H222.434C223.658 89.3408 224.378 89.8688 224.378 90.8048C224.378 91.6928 223.658 92.2448 222.434 92.2448H218.69V89.3408ZM218.69 84.6368H221.906C223.082 84.6368 223.682 85.0688 223.682 85.9568C223.682 86.7488 223.034 87.2528 221.906 87.2528H218.69V84.6368ZM232.467 94.3328L238.827 86.3168V94.3328H241.419V82.5488H238.995L232.635 90.5408V82.5488H230.043V94.3328H232.467ZM244.274 88.4288C244.274 90.2768 244.898 91.7648 246.146 92.9168C247.418 94.0688 248.954 94.6448 250.778 94.6448C252.602 94.6448 254.042 94.2608 255.122 93.4928V91.3088C253.946 92.0048 252.698 92.3648 251.33 92.3648C248.93 92.3648 247.202 91.1888 246.89 89.1968H255.914V88.5248C255.914 86.3888 255.17 84.4448 253.418 83.1968C252.554 82.5488 251.522 82.2368 250.322 82.2368C248.522 82.2368 247.082 82.8368 245.954 84.0128C244.826 85.1888 244.274 86.6768 244.274 88.4288ZM246.914 87.2288C247.082 85.6928 248.306 84.4208 250.202 84.4208C251.162 84.4208 251.906 84.7088 252.458 85.2848C253.01 85.8608 253.274 86.5088 253.298 87.2288H246.914ZM46.3417 117.317C45.7657 117.317 45.3577 116.885 45.3577 116.141V111.749C45.3577 108.869 43.1737 107.237 39.9097 107.237C38.2057 107.237 36.7897 107.573 35.6137 108.245V110.525C36.7417 109.829 37.9897 109.469 39.3337 109.469C41.6377 109.469 42.7897 110.333 42.7897 112.037V112.685C41.7097 112.085 40.4377 111.773 39.0217 111.773C37.7017 111.773 36.5737 112.109 35.6617 112.805C34.7497 113.477 34.2937 114.437 34.2937 115.685C34.2937 116.909 34.7017 117.893 35.5417 118.589C36.3817 119.285 37.4377 119.645 38.7097 119.645C40.5337 119.645 41.9737 119.045 43.0537 117.821C43.3657 118.949 44.2057 119.501 45.5257 119.501C46.1737 119.501 46.6777 119.381 47.0377 119.117V117.149C46.8217 117.269 46.6057 117.317 46.3417 117.317ZM42.7897 115.997C42.0457 116.789 40.7737 117.413 39.4297 117.413C37.9177 117.413 36.8857 116.789 36.8857 115.541C36.8857 114.389 37.9177 113.717 39.6457 113.717C40.7497 113.717 41.8057 114.005 42.7897 114.557V115.997ZM58.142 109.829V119.333H60.734V107.549H51.23L51.158 111.389C51.086 115.493 50.486 117.125 48.782 117.125C48.614 117.125 48.422 117.101 48.254 117.053V119.285C48.494 119.357 48.758 119.381 49.07 119.381C51.446 119.285 52.598 117.989 53.126 115.901C53.534 114.389 53.63 113.261 53.654 111.533L53.702 109.829H58.142ZM70.5299 119.333C71.9939 119.333 73.1219 118.949 73.9379 118.181C74.7539 117.389 75.1619 116.405 75.1619 115.229C75.1619 112.733 73.2899 111.125 70.4099 111.125H67.0259V107.549H64.4339V119.333H70.5299ZM67.0259 113.309H70.1219C71.6579 113.309 72.5459 114.005 72.5459 115.229C72.5459 116.405 71.6339 117.149 70.1219 117.149H67.0259V113.309ZM80.6197 119.333V109.829H86.4277V119.333H89.0197V107.549H78.0277V119.333H80.6197ZM95.147 119.333L101.507 111.317V119.333H104.099V107.549H101.675L95.315 115.541V107.549H92.723V119.333H95.147ZM110.217 119.333L116.577 111.317V119.333H119.169V107.549H116.745L110.385 115.541V107.549H107.793V119.333H110.217ZM113.481 105.965C115.881 105.965 117.609 104.429 117.633 102.005H115.425C115.401 103.157 114.609 103.973 113.457 103.973C112.281 103.973 111.513 103.157 111.513 102.005H109.329C109.353 104.429 111.057 105.965 113.481 105.965ZM128.384 119.645C129.776 119.645 131.024 119.333 132.152 118.685V116.477C131.168 117.077 130.04 117.365 128.792 117.365C127.616 117.365 126.632 117.005 125.816 116.261C125.024 115.517 124.616 114.557 124.616 113.429C124.616 112.301 125.024 111.365 125.816 110.621C126.632 109.877 127.616 109.517 128.792 109.517C129.848 109.517 130.904 109.781 131.96 110.285V108.053C130.928 107.501 129.728 107.237 128.408 107.237C126.632 107.237 125.12 107.813 123.872 108.965C122.648 110.117 122.024 111.605 122.024 113.405C122.024 115.229 122.648 116.717 123.872 117.893C125.12 119.069 126.632 119.645 128.384 119.645ZM137.924 119.333V114.005L143.18 119.333H146.732L140.3 112.829L145.892 107.549H142.58L137.924 112.013V107.549H135.332V119.333H137.924ZM153.816 117.365C152.688 117.365 151.776 116.981 151.032 116.237C150.288 115.493 149.928 114.557 149.928 113.429C149.928 112.325 150.288 111.389 151.032 110.645C151.776 109.901 152.712 109.517 153.816 109.517C154.92 109.517 155.832 109.901 156.576 110.645C157.32 111.389 157.68 112.325 157.68 113.429C157.68 114.557 157.32 115.493 156.576 116.237C155.832 116.981 154.92 117.365 153.816 117.365ZM153.816 119.645C155.688 119.645 157.224 119.045 158.448 117.845C159.672 116.621 160.272 115.157 160.272 113.429C160.272 111.701 159.672 110.237 158.448 109.037C157.224 107.837 155.688 107.237 153.816 107.237C151.92 107.237 150.384 107.837 149.16 109.037C147.936 110.237 147.336 111.701 147.336 113.429C147.336 115.181 147.936 116.645 149.16 117.845C150.384 119.045 151.92 119.645 153.816 119.645ZM165.721 119.333V109.829H172.249V107.549H163.129V119.333H165.721ZM180.113 117.365C178.985 117.365 178.073 116.981 177.329 116.237C176.585 115.493 176.225 114.557 176.225 113.429C176.225 112.325 176.585 111.389 177.329 110.645C178.073 109.901 179.009 109.517 180.113 109.517C181.217 109.517 182.129 109.901 182.873 110.645C183.617 111.389 183.977 112.325 183.977 113.429C183.977 114.557 183.617 115.493 182.873 116.237C182.129 116.981 181.217 117.365 180.113 117.365ZM180.113 119.645C181.985 119.645 183.521 119.045 184.745 117.845C185.969 116.621 186.569 115.157 186.569 113.429C186.569 111.701 185.969 110.237 184.745 109.037C183.521 107.837 181.985 107.237 180.113 107.237C178.217 107.237 176.681 107.837 175.457 109.037C174.233 110.237 173.633 111.701 173.633 113.429C173.633 115.181 174.233 116.645 175.457 117.845C176.681 119.045 178.217 119.645 180.113 119.645ZM198.157 119.333V111.077L201.733 115.421H202.741L206.341 111.077V119.333H208.837V107.549H206.293L202.237 112.445L198.205 107.549H195.661V119.333H198.157ZM223.6 117.317C223.023 117.317 222.616 116.885 222.616 116.141V111.749C222.616 108.869 220.432 107.237 217.168 107.237C215.464 107.237 214.048 107.573 212.872 108.245V110.525C214 109.829 215.248 109.469 216.592 109.469C218.896 109.469 220.048 110.333 220.048 112.037V112.685C218.968 112.085 217.696 111.773 216.28 111.773C214.96 111.773 213.832 112.109 212.92 112.805C212.008 113.477 211.552 114.437 211.552 115.685C211.552 116.909 211.96 117.893 212.8 118.589C213.64 119.285 214.696 119.645 215.968 119.645C217.792 119.645 219.232 119.045 220.312 117.821C220.624 118.949 221.464 119.501 222.784 119.501C223.432 119.501 223.936 119.381 224.296 119.117V117.149C224.08 117.269 223.864 117.317 223.6 117.317ZM220.048 115.997C219.304 116.789 218.032 117.413 216.688 117.413C215.176 117.413 214.144 116.789 214.144 115.541C214.144 114.389 215.176 113.717 216.904 113.717C218.008 113.717 219.064 114.005 220.048 114.557V115.997ZM232.376 119.645C233.768 119.645 235.016 119.333 236.144 118.685V116.477C235.16 117.077 234.032 117.365 232.784 117.365C231.608 117.365 230.624 117.005 229.808 116.261C229.016 115.517 228.608 114.557 228.608 113.429C228.608 112.301 229.016 111.365 229.808 110.621C230.624 109.877 231.608 109.517 232.784 109.517C233.84 109.517 234.896 109.781 235.952 110.285V108.053C234.92 107.501 233.72 107.237 232.4 107.237C230.624 107.237 229.112 107.813 227.864 108.965C226.64 110.117 226.016 111.605 226.016 113.405C226.016 115.229 226.64 116.717 227.864 117.893C229.112 119.069 230.624 119.645 232.376 119.645ZM255.885 119.333V107.549H253.293V117.053H248.901V107.549H246.309V117.053H241.917V107.549H239.325V119.333H255.885ZM264.783 119.333V109.829H268.743V107.549H258.207V109.829H262.191V119.333H264.783ZM282.17 117.317C281.594 117.317 281.186 116.885 281.186 116.141V111.749C281.186 108.869 279.002 107.237 275.738 107.237C274.034 107.237 272.618 107.573 271.442 108.245V110.525C272.57 109.829 273.818 109.469 275.162 109.469C277.466 109.469 278.618 110.333 278.618 112.037V112.685C277.538 112.085 276.266 111.773 274.85 111.773C273.53 111.773 272.402 112.109 271.49 112.805C270.578 113.477 270.122 114.437 270.122 115.685C270.122 116.909 270.53 117.893 271.37 118.589C272.21 119.285 273.266 119.645 274.538 119.645C276.362 119.645 277.802 119.045 278.882 117.821C279.194 118.949 280.034 119.501 281.354 119.501C282.002 119.501 282.506 119.381 282.866 119.117V117.149C282.65 117.269 282.434 117.317 282.17 117.317ZM278.618 115.997C277.874 116.789 276.602 117.413 275.258 117.413C273.746 117.413 272.714 116.789 272.714 115.541C272.714 114.389 273.746 113.717 275.474 113.717C276.578 113.717 277.634 114.005 278.618 114.557V115.997ZM291.186 119.645C292.89 119.645 294.33 119.093 295.482 117.965C296.658 116.837 297.234 115.373 297.234 113.573C297.234 111.965 296.73 110.669 295.722 109.685C294.714 108.701 293.442 108.197 291.906 108.197C289.866 108.197 288.114 109.085 287.13 110.525C287.178 109.757 287.322 109.085 287.562 108.533C288.114 107.213 289.29 106.277 291.066 105.677C291.762 105.437 293.394 105.077 295.914 104.597V102.197C294.354 102.461 293.034 102.725 291.954 102.989C290.898 103.253 289.866 103.637 288.882 104.117C287.898 104.597 287.13 105.173 286.578 105.845C285.45 107.165 284.754 109.181 284.754 111.893C284.754 114.269 285.306 116.141 286.434 117.557C287.562 118.949 289.146 119.645 291.186 119.645ZM291.186 117.365C288.81 117.365 287.418 115.685 287.298 112.805C288.066 111.485 289.626 110.429 291.282 110.429C293.226 110.429 294.642 111.749 294.642 113.765C294.642 114.821 294.306 115.685 293.658 116.357C293.01 117.029 292.17 117.365 291.186 117.365ZM311.162 117.317C310.586 117.317 310.178 116.885 310.178 116.141V111.749C310.178 108.869 307.994 107.237 304.73 107.237C303.026 107.237 301.61 107.573 300.434 108.245V110.525C301.562 109.829 302.81 109.469 304.154 109.469C306.458 109.469 307.61 110.333 307.61 112.037V112.685C306.53 112.085 305.258 111.773 303.842 111.773C302.522 111.773 301.394 112.109 300.482 112.805C299.57 113.477 299.114 114.437 299.114 115.685C299.114 116.909 299.522 117.893 300.362 118.589C301.202 119.285 302.258 119.645 303.53 119.645C305.354 119.645 306.794 119.045 307.874 117.821C308.186 118.949 309.026 119.501 310.346 119.501C310.994 119.501 311.498 119.381 311.858 119.117V117.149C311.642 117.269 311.426 117.317 311.162 117.317ZM307.61 115.997C306.866 116.789 305.594 117.413 304.25 117.413C302.738 117.413 301.706 116.789 301.706 115.541C301.706 114.389 302.738 113.717 304.466 113.717C305.57 113.717 306.626 114.005 307.61 114.557V115.997Z" fill="#101820"/>
<defs>
<clipPath id="clip0_2_1642">
<rect width="346" height="51.3328" fill="white"/>
</clipPath>
</defs>
</svg>
