<svg width="36" height="25" viewBox="0 0 36 25" fill="none" xmlns="http://www.w3.org/2000/svg">
<path d="M4.9165 5C4.9165 4.44772 5.36422 4 5.9165 4H30.9165C31.4688 4 31.9165 4.44772 31.9165 5V6C31.9165 6.55228 31.4688 7 30.9165 7H5.9165C5.36422 7 4.9165 6.55228 4.9165 6V5Z" fill="#0FB9D9"/>
<path d="M4.9165 12C4.9165 11.4477 5.36422 11 5.9165 11H30.9165C31.4688 11 31.9165 11.4477 31.9165 12V13C31.9165 13.5523 31.4688 14 30.9165 14H5.9165C5.36422 14 4.9165 13.5523 4.9165 13V12Z" fill="#0FB9D9"/>
<path d="M4.9165 19C4.9165 18.4477 5.36422 18 5.9165 18H30.9165C31.4688 18 31.9165 18.4477 31.9165 19V20C31.9165 20.5523 31.4688 21 30.9165 21H5.9165C5.36422 21 4.9165 20.5523 4.9165 20V19Z" fill="#0FB9D9"/>
</svg>
