<svg width="180" height="51" viewBox="0 0 180 51" fill="none" xmlns="http://www.w3.org/2000/svg">
<path fill-rule="evenodd" clip-rule="evenodd" d="M49.7138 17.1311C49.7138 7.6758 57.3886 0 66.8427 0C76.3234 0 83.9717 7.6758 83.9717 17.1311C83.9717 26.5864 76.2968 34.2622 66.8427 34.2622C57.3886 34.2622 49.7138 26.5864 49.7138 17.1311ZM59.9911 17.1311C59.9911 20.9292 63.0717 23.9836 66.8427 23.9836C70.6403 23.9836 73.6943 20.9026 73.6943 17.1311C73.6943 13.3331 70.6137 10.2787 66.8427 10.2787C63.0451 10.2787 59.9911 13.3596 59.9911 17.1311Z" fill="#00BBDC"/>
<path d="M3.50546 0.77021H15.7215C17.6601 0.77021 19.2269 2.33724 19.2269 4.27611V5.84315C19.2269 7.78202 17.6601 9.34905 15.7215 9.34905H10.4367V12.9612H15.5887C17.5273 12.9612 19.0941 14.5282 19.0941 16.4671V17.556C19.0941 19.4949 17.5273 21.062 15.5887 21.062H10.4367V29.8798C10.4367 31.8187 8.86987 33.3857 6.93125 33.3857H3.50546C1.56683 33.3857 0 31.8187 0 29.8798V4.30267C0 2.3638 1.56683 0.77021 3.50546 0.77021Z" fill="#00BBDC"/>
<path d="M90.1859 0.77021H93.4258C94.5677 0.77021 95.63 1.32797 96.2939 2.231L104.261 13.333V4.30267C104.261 2.3638 105.828 0.79677 107.766 0.79677H110.98C112.918 0.79677 114.485 2.3638 114.485 4.30267V29.933C114.485 31.8718 112.918 33.4389 110.98 33.4389H107.687C106.545 33.4389 105.482 32.8811 104.819 31.9781L96.9047 20.9292V29.933C96.9047 31.8718 95.3379 33.4389 93.3992 33.4389H90.1859C88.2473 33.4389 86.6804 31.8718 86.6804 29.933V4.30267C86.6804 2.3638 88.2473 0.77021 90.1859 0.77021Z" fill="#00BBDC"/>
<path d="M133.632 0.77021H121.416C119.478 0.77021 117.911 2.3638 117.911 4.30267V29.8798C117.911 31.8187 119.478 33.3857 121.416 33.3857H133.978C135.916 33.3857 137.483 31.8187 137.483 29.8798V28.3394C137.483 26.4005 135.916 24.8335 133.978 24.8335H128.348V21.062H133.5C135.438 21.062 137.005 19.4949 137.005 17.556V16.4671C137.005 14.5282 135.438 12.9612 133.5 12.9612H128.348V9.34905H133.632C135.571 9.34905 137.138 7.78202 137.138 5.84315V4.27611C137.138 2.33724 135.571 0.77021 133.632 0.77021Z" fill="#00BBDC"/>
<path d="M172.458 0.77021H176.495C178.433 0.77021 180 2.33724 180 4.27611V29.9064C180 31.8453 178.433 33.4123 176.495 33.4123H172.458C170.519 33.4123 168.952 31.8453 168.952 29.9064V4.30267C168.952 2.3638 170.519 0.77021 172.458 0.77021Z" fill="#00BBDC"/>
<path fill-rule="evenodd" clip-rule="evenodd" d="M161.888 22.7087C164.65 20.4511 166.244 16.9983 166.244 13.1206C166.244 6.61338 161.331 0.84989 151.824 0.79677C151.77 0.77021 151.717 0.77021 151.691 0.77021H143.936C141.998 0.77021 140.431 2.33724 140.431 4.27611V29.9064C140.431 31.8453 141.998 33.4123 143.936 33.4123H147.335C149.274 33.4123 150.841 31.8453 150.841 29.9064V25.1522L154.718 31.7125C155.356 32.7749 156.497 33.4389 157.746 33.4389H163.269C165.367 33.4389 166.695 31.1813 165.659 29.3486L161.888 22.7087ZM152.328 16.8389H150.841V9.58809H152.328C154.32 9.58809 155.94 11.2082 155.94 13.2002C155.966 15.2188 154.32 16.8389 152.328 16.8389Z" fill="#00BBDC"/>
<path fill-rule="evenodd" clip-rule="evenodd" d="M80.8646 35.298C82.2189 34.1825 84.1841 34.2888 85.4588 35.484L88.0879 37.954C89.6017 39.3883 89.5751 41.8318 87.9817 43.1863C74.7034 54.3946 55.1313 53.3588 43.0481 41.274C40.658 38.9102 35.3201 32.2171 32.3458 24.1695V29.9064C32.3458 31.8453 30.779 33.4123 28.8404 33.4123H25.4411C23.5025 33.4123 21.9357 31.8453 21.9357 29.9064V4.27611C21.9357 2.33724 23.5025 0.77021 25.4411 0.77021H33.2222C42.7029 0.82333 47.7751 6.61338 47.7751 13.1206C47.7751 16.9983 46.1818 20.4776 43.4199 22.7087C44.3759 25.3647 47.5627 30.7563 50.5901 33.7576C58.7961 41.9115 71.8088 42.7083 80.8646 35.298ZM32.3724 16.8389H33.8595C35.8513 16.8389 37.4712 15.2188 37.4712 13.2002C37.4712 11.2082 35.8513 9.58809 33.8595 9.58809H32.3724V16.8389Z" fill="#00BBDC"/>
</svg>
